<svg width="198" height="75" viewBox="0 0 198 75" fill="none" xmlns="http://www.w3.org/2000/svg">
<path d="M23.2629 23.1423L37.2843 19.521L30.1182 39.7915L23.8382 23.8845L35.9474 20.6387L30.1138 37.4995L25.4978 24.7483L34.6743 21.7563L30.2998 34.7736L27.6037 25.6113L33.2107 23.3079L30.3577 31.8001L28.8805 26.352L31.6828 24.6119L30.671 28.95L30.0294 26.9072L23.2629 23.1423Z" stroke="#171717" stroke-width="1.70473" stroke-linecap="square" stroke-linejoin="bevel"/>
<path d="M38.8498 4.77492L26.8862 17.3121L46.5835 14.0509L39.3618 5.76499L29.243 16.0064L44.9244 13.4348L39.6835 7.25101L32.0457 14.4521L42.819 12.8816L39.4319 8.98597L35.0401 13.1452L40.8421 12.7617L39.5617 10.1626L38.0341 11.5905L39.5653 12.021L38.8498 4.77492Z" stroke="#171717" stroke-width="1.70473" stroke-linecap="square" stroke-linejoin="bevel"/>
<path d="M38.9139 4.58913L36.0508 7.87802L39.4352 10.3489L41.3406 6.44253L38.9139 4.58913Z" stroke="#171717" stroke-width="1.70473" stroke-linecap="square" stroke-linejoin="bevel"/>
<path d="M44.4619 5.01136L57.5618 19.2939L62.449 7.63838L44.0122 3.27783L46.0583 6.12312L56.9835 17.0651L61.3662 8.26002L46.4378 4.57373L56.4065 15.4557L60.2198 8.94375L48.5448 5.93222L55.8935 13.9701L58.3718 9.56695L50.9067 7.2902L55.3811 12.7942L57.1612 10.065L53.2053 8.83413L54.9324 11.6181L55.8232 10.6252L54.5463 9.82252L44.4619 5.01136Z" stroke="#171717" stroke-width="1.70473" stroke-linecap="square" stroke-linejoin="bevel"/>
<path d="M56.3794 42.7734L57.0315 42.0287" stroke="#171717" stroke-width="1.70473" stroke-linecap="square" stroke-linejoin="bevel"/>
<path d="M23.272 22.6069L37.2743 19.0286L30.2731 40.4986L23.272 22.6069Z" fill="#171717" stroke="#171717"/>
<path d="M39.0249 3.52246L47.7763 14.2575L25.606 18.4322L39.0249 3.52246Z" fill="#171717"/>
<path d="M38.0089 31.5527L33.1909 45.5798L51.8607 48.2516L38.0089 31.5527Z" fill="#171717" stroke="#171717"/>
<path d="M48.3063 14.3572L39.1667 3.53549L24.7216 18.8032L48.3063 14.3572Z" stroke="#171717" stroke-width="1.70473" stroke-linecap="square" stroke-linejoin="bevel"/>
<path d="M42.5259 2.32959L62.946 7.1007L58.2785 19.6249L42.5259 2.32959Z" fill="#171717"/>
<path d="M71.697 32.7454L47.8377 36.7531H47.1929L57.5104 47.0587L71.697 32.7454Z" fill="#171717"/>
<path d="M58.1377 20.5937L63.1487 6.95566L41.8413 2.04346L58.1377 20.5937Z" stroke="#171717" stroke-width="1.70473" stroke-linecap="square" stroke-linejoin="bevel"/>
<path d="M72.2807 28.5709L58.8618 30.9564L65.2796 10.6792L72.2807 28.5709Z" fill="#171717" stroke="#171717"/>
<path d="M57.6814 48.2218L47.3927 36.7211L72.5712 32.086L57.6814 48.2218Z" stroke="#171717" stroke-width="1.70473" stroke-linecap="square" stroke-linejoin="bevel"/>
<path d="M58.0318 31.6199L65.3851 9.243L72.8205 29.0501L58.0318 31.6199Z" stroke="#171717" stroke-width="1.70473" stroke-linecap="square" stroke-linejoin="bevel"/>
<path d="M38.24 19.0232L23.0072 22.7711L29.8675 42.0837L38.24 19.0232Z" stroke="#171717" stroke-width="1.70473" stroke-linecap="square" stroke-linejoin="bevel"/>
<path d="M32.1714 46.0436L37.753 30.732L53.73 48.9731L32.1714 46.0436Z" stroke="#171717" stroke-width="1.70473" stroke-linecap="square" stroke-linejoin="bevel"/>
<path d="M49.2075 33.1416C46.451 33.1416 44.4119 32.4147 43.0903 30.9609C41.7687 29.5072 41.1079 27.2463 41.1079 24.1782C41.1079 18.2026 43.8219 15.2148 49.25 15.2148C50.043 15.2148 50.8123 15.2998 51.5581 15.4697C52.3039 15.6302 52.908 15.8332 53.3706 16.0786C53.8332 16.3241 54.0645 16.5601 54.0645 16.7866C54.0645 16.9282 54.0125 17.117 53.9087 17.353C53.8143 17.589 53.701 17.7967 53.5688 17.9761C53.4367 18.1554 53.3187 18.2451 53.2148 18.2451C53.1676 18.2451 53.0355 18.1838 52.8184 18.061C52.3275 17.7967 51.813 17.5749 51.2749 17.3955C50.7368 17.2161 50.0807 17.1265 49.3066 17.1265C47.277 17.1265 45.7808 17.6929 44.8179 18.8257C43.8644 19.9491 43.3877 21.7427 43.3877 24.2065C43.3877 26.6138 43.8597 28.3885 44.8037 29.5308C45.7572 30.6636 47.2251 31.23 49.2075 31.23C50.0382 31.23 50.751 31.1309 51.3457 30.9326C51.9404 30.7344 52.5116 30.4889 53.0591 30.1963C53.3234 30.0547 53.4839 29.9839 53.5405 29.9839C53.6444 29.9839 53.7624 30.0736 53.8945 30.2529C54.0361 30.4323 54.1589 30.6353 54.2627 30.8618C54.3665 31.0789 54.4185 31.2347 54.4185 31.3291C54.4185 31.5651 54.1777 31.8294 53.6963 32.1221C53.2243 32.4053 52.5871 32.646 51.7847 32.8442C50.9917 33.0425 50.1326 33.1416 49.2075 33.1416ZM62.7163 33.0425C62.3387 33.0425 62.0649 33.0094 61.895 32.9434C61.7251 32.8678 61.6401 32.7593 61.6401 32.6177C61.6401 32.5516 61.6637 32.4383 61.7109 32.2778L67.6724 15.7246C67.7668 15.4508 68.1019 15.314 68.6777 15.314H69.4141C69.9899 15.314 70.325 15.4508 70.4194 15.7246L76.3809 32.292C76.4281 32.3958 76.4517 32.5044 76.4517 32.6177C76.4517 32.9009 76.0977 33.0425 75.3896 33.0425H75.1772C74.592 33.0425 74.2521 32.9103 74.1577 32.646L72.6851 28.5112H65.2935L63.8491 32.646C63.7642 32.9103 63.429 33.0425 62.8438 33.0425H62.7163ZM72.0054 26.5996L69.3716 19.1089C69.2961 18.9012 69.2347 18.6652 69.1875 18.4009C69.1403 18.1366 69.0978 17.8817 69.0601 17.6362H69.0034C68.8901 18.2687 68.7627 18.7596 68.6211 19.1089L65.9873 26.5996H72.0054ZM86.1089 33.0425C85.7502 33.0425 85.4906 33 85.3301 32.915C85.1696 32.8206 85.0894 32.679 85.0894 32.4902V15.8804C85.0894 15.5028 85.4292 15.314 86.1089 15.314H87.001C87.5579 15.314 87.9119 15.4697 88.063 15.7812L92.8208 24.0366L93.4722 25.6226L94.1235 24.1782L98.8955 15.7812C99.056 15.4697 99.4053 15.314 99.9434 15.314H100.779C101.449 15.314 101.784 15.5028 101.784 15.8804V32.4902C101.784 32.8584 101.449 33.0425 100.779 33.0425H100.609C100.25 33.0425 99.9906 33 99.8301 32.915C99.6696 32.8206 99.5894 32.679 99.5894 32.4902V18.939L99.5469 19.0522L94.5342 27.7607C94.4681 27.874 94.3926 27.959 94.3076 28.0156C94.2227 28.0628 94.1141 28.0864 93.9819 28.0864H92.9766C92.7217 28.0864 92.5329 27.9779 92.4102 27.7607L87.2842 18.7974V32.4902C87.2842 32.8584 86.9491 33.0425 86.2788 33.0425H86.1089Z" fill="#96773F"/>
<path d="M113.551 33.0425C112.872 33.0425 112.532 32.8584 112.532 32.4902V16.1353C112.532 15.8709 112.593 15.6821 112.716 15.5688C112.839 15.4461 113.032 15.3848 113.296 15.3848H117.53C119.541 15.3848 121.051 15.7388 122.062 16.4468C123.081 17.1548 123.591 18.2829 123.591 19.8311C123.591 20.8789 123.336 21.7616 122.826 22.479C122.326 23.187 121.618 23.7204 120.702 24.0791V24.1782C121.193 24.3481 121.594 24.6785 121.906 25.1694C122.227 25.6509 122.581 26.3683 122.968 27.3218L124.936 32.292C124.983 32.4619 125.007 32.5799 125.007 32.646C125.007 32.9103 124.653 33.0425 123.945 33.0425H123.69C123.435 33.0425 123.213 33.0094 123.024 32.9434C122.845 32.8678 122.732 32.7687 122.685 32.646L120.773 27.7041C120.528 27.0622 120.24 26.5618 119.909 26.2031C119.579 25.8444 119.187 25.5942 118.734 25.4526C118.281 25.311 117.71 25.2402 117.021 25.2402H114.755V32.4902C114.755 32.8584 114.42 33.0425 113.75 33.0425H113.551ZM118.068 23.3286C118.663 23.3286 119.206 23.187 119.697 22.9038C120.197 22.6206 120.589 22.243 120.872 21.771C121.165 21.2896 121.311 20.7798 121.311 20.2417C121.311 19.2505 121.009 18.5142 120.405 18.0327C119.801 17.5418 118.965 17.2964 117.898 17.2964H114.755V23.3286H118.068ZM134.735 33C134.471 33 134.277 32.9386 134.154 32.8159C134.032 32.6932 133.97 32.5044 133.97 32.2495V16.1353C133.97 15.8709 134.032 15.6821 134.154 15.5688C134.277 15.4461 134.471 15.3848 134.735 15.3848H143.514C143.694 15.3848 143.821 15.4414 143.896 15.5547C143.981 15.668 144.024 15.8615 144.024 16.1353V16.5459C144.024 16.8008 143.981 16.9896 143.896 17.1123C143.821 17.235 143.694 17.2964 143.514 17.2964H136.193V23.0312H142.764C142.943 23.0312 143.07 23.0926 143.146 23.2153C143.231 23.3381 143.273 23.5316 143.273 23.7959V24.1782C143.273 24.4425 143.231 24.6361 143.146 24.7588C143.07 24.8721 142.943 24.9287 142.764 24.9287H136.193V31.0884H143.542C143.722 31.0884 143.849 31.1497 143.925 31.2725C144.01 31.3857 144.052 31.5745 144.052 31.8389V32.2495C144.052 32.5044 144.01 32.6932 143.925 32.8159C143.849 32.9386 143.722 33 143.542 33H134.735ZM154.644 33.0425C154.285 33.0425 154.026 33 153.865 32.915C153.705 32.8206 153.625 32.679 153.625 32.4902V15.8804C153.625 15.5028 153.964 15.314 154.644 15.314H155.168C155.432 15.314 155.64 15.3517 155.791 15.4272C155.951 15.5028 156.093 15.6255 156.216 15.7954L164.259 27.9307L165.009 29.3467V15.8804C165.009 15.5028 165.34 15.314 166 15.314H166.199C166.86 15.314 167.19 15.5028 167.19 15.8804V32.4902C167.19 32.679 167.11 32.8206 166.949 32.915C166.789 33 166.539 33.0425 166.199 33.0425H165.689C165.453 33.0425 165.264 33.0142 165.123 32.9575C164.981 32.9009 164.872 32.8112 164.797 32.6885L156.499 20.1709L155.819 18.8682V32.4902C155.819 32.8584 155.484 33.0425 154.814 33.0425H154.644ZM182.37 33.0425C182.02 33.0425 181.765 33 181.605 32.915C181.444 32.8206 181.364 32.679 181.364 32.4902V17.2964H176.521C176.342 17.2964 176.215 17.235 176.139 17.1123C176.064 16.9896 176.026 16.8008 176.026 16.5459V16.1353C176.026 15.8709 176.064 15.6821 176.139 15.5688C176.215 15.4461 176.342 15.3848 176.521 15.3848H188.331C188.51 15.3848 188.638 15.4461 188.713 15.5688C188.789 15.6821 188.827 15.8709 188.827 16.1353V16.5459C188.827 16.8008 188.789 16.9896 188.713 17.1123C188.638 17.235 188.51 17.2964 188.331 17.2964H183.587V32.4902C183.587 32.8584 183.248 33.0425 182.568 33.0425H182.37Z" fill="#1B1B1B"/>
</svg>
